
<global>
amp_veltrack=0
ampeg_release=2.50
</global>

<group>
group_label=RR1_43-84
seq_length=4
seq_position=1
xfin_hicc1=84
xfin_locc1=43
xfout_hicc1=125
xfout_locc1=84

<region>
hikey=g6
hivel=127
lokey=f#6
lovel=1
offset=15471
pitch_keycenter=g6
sample=Violins2_col_legno_MF_G6_RR1.opus
</region>

<region>
hikey=g5
hivel=127
lokey=f#5
lovel=1
offset=11832
pitch_keycenter=g5
sample=Violins2_col_legno_MF_G5_RR1.opus
</region>

<region>
hikey=g4
hivel=127
lokey=f#4
lovel=1
offset=13542
pitch_keycenter=g4
sample=Violins2_col_legno_MF_G4_RR1.opus
</region>

<region>
hivel=127
key=g3
lovel=1
offset=2361
sample=Violins2_col_legno_MF_G3_RR1.opus
</region>

<region>
hikey=f6
hivel=127
lokey=e6
lovel=1
offset=13860
pitch_keycenter=f6
sample=Violins2_col_legno_MF_F6_RR1.opus
</region>

<region>
hikey=f5
hivel=127
lokey=e5
lovel=1
offset=12497
pitch_keycenter=f5
sample=Violins2_col_legno_MF_F5_RR1.opus
</region>

<region>
hikey=f4
hivel=127
lokey=e4
lovel=1
offset=12878
pitch_keycenter=f4
sample=Violins2_col_legno_MF_F4_RR1.opus
</region>

<region>
hikey=d#6
hivel=127
lokey=d6
lovel=1
offset=10982
pitch_keycenter=d#6
sample=Violins2_col_legno_MF_D#6_RR1.opus
</region>

<region>
hikey=d#5
hivel=127
lokey=d5
lovel=1
offset=14656
pitch_keycenter=d#5
sample=Violins2_col_legno_MF_D#5_RR1.opus
</region>

<region>
hikey=d#4
hivel=127
lokey=d4
lovel=1
offset=11784
pitch_keycenter=d#4
sample=Violins2_col_legno_MF_D#4_RR1.opus
</region>

<region>
hikey=c#6
hivel=127
lokey=c6
lovel=1
offset=11391
pitch_keycenter=c#6
sample=Violins2_col_legno_MF_C#6_RR1.opus
</region>

<region>
hikey=c#5
hivel=127
lokey=c5
lovel=1
offset=13172
pitch_keycenter=c#5
sample=Violins2_col_legno_MF_C#5_RR1.opus
</region>

<region>
hikey=c#4
hivel=127
lokey=c4
lovel=1
offset=13039
pitch_keycenter=c#4
sample=Violins2_col_legno_MF_C#4_RR1.opus
</region>

<region>
hikey=E7
hivel=127
lokey=a#6
lovel=1
offset=12827
pitch_keycenter=B6
sample=Violins2_col_legno_MF_B6_RR1.opus
</region>

<region>
hikey=b5
hivel=127
lokey=a#5
lovel=1
offset=14474
pitch_keycenter=b5
sample=Violins2_col_legno_MF_B5_RR1.opus
</region>

<region>
hikey=b4
hivel=127
lokey=a#4
lovel=1
offset=13310
pitch_keycenter=b4
sample=Violins2_col_legno_MF_B4_RR1.opus
</region>

<region>
hikey=b3
hivel=127
lokey=a#3
lovel=1
offset=13472
pitch_keycenter=b3
sample=Violins2_col_legno_MF_B3_RR1.opus
</region>

<region>
hikey=a6
hivel=127
lokey=g#6
lovel=1
offset=12919
pitch_keycenter=a6
sample=Violins2_col_legno_MF_A6_RR1.opus
</region>

<region>
hikey=a5
hivel=127
lokey=g#5
lovel=1
offset=14586
pitch_keycenter=a5
sample=Violins2_col_legno_MF_A5_RR1.opus
</region>

<region>
hikey=a4
hivel=127
lokey=g#4
lovel=1
offset=12026
pitch_keycenter=a4
sample=Violins2_col_legno_MF_A4_RR1.opus
</region>

<region>
hikey=a3
hivel=127
lokey=g#3
lovel=1
offset=13352
pitch_keycenter=a3
sample=Violins2_col_legno_MF_A3_RR1.opus
</region>
</group>

<group>
group_label=RR1_0-42
seq_length=4
seq_position=1
xfin_hicc1=42
xfout_hicc1=84
xfout_locc1=42

<region>
hikey=g6
hivel=127
lokey=f#6
lovel=1
offset=11569
pitch_keycenter=g6
sample=Violins2_col_legno_PP_G6_RR1.opus
</region>

<region>
hikey=g5
hivel=127
lokey=f#5
lovel=1
offset=12254
pitch_keycenter=g5
sample=Violins2_col_legno_PP_G5_RR1.opus
</region>

<region>
hikey=g4
hivel=127
lokey=f#4
lovel=1
offset=11848
pitch_keycenter=g4
sample=Violins2_col_legno_PP_G4_RR1.opus
</region>

<region>
hivel=127
key=g3
lovel=1
offset=8058
sample=Violins2_col_legno_PP_G3_RR1.opus
</region>

<region>
hikey=f6
hivel=127
lokey=e6
lovel=1
offset=11706
pitch_keycenter=f6
sample=Violins2_col_legno_PP_F6_RR1.opus
</region>

<region>
hikey=f5
hivel=127
lokey=e5
lovel=1
offset=12078
pitch_keycenter=f5
sample=Violins2_col_legno_PP_F5_RR1.opus
</region>

<region>
hikey=f4
hivel=127
lokey=e4
lovel=1
pitch_keycenter=f4
sample=Violins2_col_legno_PP_F4_RR1.opus
</region>

<region>
hikey=d#6
hivel=127
lokey=d6
lovel=1
offset=13418
pitch_keycenter=d#6
sample=Violins2_col_legno_PP_D#6_RR1.opus
</region>

<region>
hikey=d#5
hivel=127
lokey=d5
lovel=1
offset=10637
pitch_keycenter=d#5
sample=Violins2_col_legno_PP_D#5_RR1.opus
</region>

<region>
hikey=d#4
hivel=127
lokey=d4
lovel=1
offset=10194
pitch_keycenter=d#4
sample=Violins2_col_legno_PP_D#4_RR1.opus
</region>

<region>
hikey=c#6
hivel=127
lokey=c6
lovel=1
offset=11499
pitch_keycenter=c#6
sample=Violins2_col_legno_PP_C#6_RR1.opus
</region>

<region>
hikey=c#5
hivel=127
lokey=c5
lovel=1
offset=13802
pitch_keycenter=c#5
sample=Violins2_col_legno_PP_C#5_RR1.opus
</region>

<region>
hikey=c#4
hivel=127
lokey=c4
lovel=1
offset=13557
pitch_keycenter=c#4
sample=Violins2_col_legno_PP_C#4_RR1.opus
</region>

<region>
hikey=E7
hivel=127
lokey=a#6
lovel=1
offset=13048
pitch_keycenter=B6
sample=Violins2_col_legno_PP_B6_RR1.opus
</region>

<region>
hikey=b5
hivel=127
lokey=a#5
lovel=1
offset=9132
pitch_keycenter=b5
sample=Violins2_col_legno_PP_B5_RR1.opus
</region>

<region>
hikey=b4
hivel=127
lokey=a#4
lovel=1
offset=9865
pitch_keycenter=b4
sample=Violins2_col_legno_PP_B4_RR1.opus
</region>

<region>
hikey=b3
hivel=127
lokey=a#3
lovel=1
offset=12397
pitch_keycenter=b3
sample=Violins2_col_legno_PP_B3_RR1.opus
</region>

<region>
hikey=a6
hivel=127
lokey=g#6
lovel=1
offset=126
pitch_keycenter=a6
sample=Violins2_col_legno_PP_A6_RR1.opus
</region>

<region>
hikey=a5
hivel=127
lokey=g#5
lovel=1
offset=10019
pitch_keycenter=a5
sample=Violins2_col_legno_PP_A5_RR1.opus
</region>

<region>
hikey=a4
hivel=127
lokey=g#4
lovel=1
offset=3437
pitch_keycenter=a4
sample=Violins2_col_legno_PP_A4_RR1.opus
</region>

<region>
hikey=a3
hivel=127
lokey=g#3
lovel=1
offset=13200
pitch_keycenter=a3
sample=Violins2_col_legno_PP_A3_RR1.opus
</region>
</group>

<group>
group_label=RR1_85-127
seq_length=4
seq_position=1
xfin_hicc1=127
xfin_locc1=85
xfout_hicc1=127
xfout_locc1=127

<region>
hikey=g6
hivel=127
lokey=f#6
lovel=1
offset=11571
pitch_keycenter=g6
sample=Violins2_col_legno_FF_G6_RR1.opus
</region>

<region>
hikey=g5
hivel=127
lokey=f#5
lovel=1
offset=9829
pitch_keycenter=g5
sample=Violins2_col_legno_FF_G5_RR1.opus
</region>

<region>
hikey=g4
hivel=127
lokey=f#4
lovel=1
offset=10990
pitch_keycenter=g4
sample=Violins2_col_legno_FF_G4_RR1.opus
</region>

<region>
hivel=127
key=g3
lovel=1
offset=11479
sample=Violins2_col_legno_FF_G3_RR1.opus
</region>

<region>
hikey=f6
hivel=127
lokey=e6
lovel=1
offset=9582
pitch_keycenter=f6
sample=Violins2_col_legno_FF_F6_RR1.opus
</region>

<region>
hikey=f5
hivel=127
lokey=e5
lovel=1
offset=11713
pitch_keycenter=f5
sample=Violins2_col_legno_FF_F5_RR1.opus
</region>

<region>
hikey=f4
hivel=127
lokey=e4
lovel=1
offset=11377
pitch_keycenter=f4
sample=Violins2_col_legno_FF_F4_RR1.opus
</region>

<region>
hikey=d#6
hivel=127
lokey=d6
lovel=1
offset=11523
pitch_keycenter=d#6
sample=Violins2_col_legno_FF_D#6_RR1.opus
</region>

<region>
hikey=d#5
hivel=127
lokey=d5
lovel=1
offset=8631
pitch_keycenter=d#5
sample=Violins2_col_legno_FF_D#5_RR1.opus
</region>

<region>
hikey=d#4
hivel=127
lokey=d4
lovel=1
offset=12250
pitch_keycenter=d#4
sample=Violins2_col_legno_FF_D#4_RR1.opus
</region>

<region>
hikey=c#6
hivel=127
lokey=c6
lovel=1
offset=10033
pitch_keycenter=c#6
sample=Violins2_col_legno_FF_C#6_RR1.opus
</region>

<region>
hikey=c#5
hivel=127
lokey=c5
lovel=1
offset=10260
pitch_keycenter=c#5
sample=Violins2_col_legno_FF_C#5_RR1.opus
</region>

<region>
hikey=c#4
hivel=127
lokey=c4
lovel=1
offset=7609
pitch_keycenter=c#4
sample=Violins2_col_legno_FF_C#4_RR1.opus
</region>

<region>
hikey=E7
hivel=127
lokey=a#6
lovel=1
offset=11912
pitch_keycenter=B6
sample=Violins2_col_legno_FF_B6_RR1.opus
</region>

<region>
hikey=b5
hivel=127
lokey=a#5
lovel=1
offset=11173
pitch_keycenter=b5
sample=Violins2_col_legno_FF_B5_RR1.opus
</region>

<region>
hikey=b4
hivel=127
lokey=a#4
lovel=1
offset=12615
pitch_keycenter=b4
sample=Violins2_col_legno_FF_B4_RR1.opus
</region>

<region>
hikey=b3
hivel=127
lokey=a#3
lovel=1
offset=11488
pitch_keycenter=b3
sample=Violins2_col_legno_FF_B3_RR1.opus
</region>

<region>
hikey=a6
hivel=127
lokey=g#6
lovel=1
offset=12496
pitch_keycenter=a6
sample=Violins2_col_legno_FF_A6_RR1.opus
</region>

<region>
hikey=a5
hivel=127
lokey=g#5
lovel=1
offset=11164
pitch_keycenter=a5
sample=Violins2_col_legno_FF_A5_RR1.opus
</region>

<region>
hikey=a4
hivel=127
lokey=g#4
lovel=1
offset=10063
pitch_keycenter=a4
sample=Violins2_col_legno_FF_A4_RR1.opus
</region>

<region>
hikey=a3
hivel=127
lokey=g#3
lovel=1
offset=13506
pitch_keycenter=a3
sample=Violins2_col_legno_FF_A3_RR1.opus
</region>
</group>

<group>
group_label=RR2_43-84
seq_length=4
seq_position=2
xfin_hicc1=84
xfin_locc1=43
xfout_hicc1=125
xfout_locc1=84

<region>
hikey=g6
hivel=127
lokey=f#6
lovel=1
offset=11662
pitch_keycenter=g6
sample=Violins2_col_legno_MF_G6_RR2.opus
</region>

<region>
hikey=g5
hivel=127
lokey=f#5
lovel=1
offset=12355
pitch_keycenter=g5
sample=Violins2_col_legno_MF_G5_RR2.opus
</region>

<region>
hikey=g4
hivel=127
lokey=f#4
lovel=1
offset=14473
pitch_keycenter=g4
sample=Violins2_col_legno_MF_G4_RR2.opus
</region>

<region>
hivel=127
key=g3
lovel=1
offset=12769
sample=Violins2_col_legno_MF_G3_RR2.opus
</region>

<region>
hikey=f6
hivel=127
lokey=e6
lovel=1
offset=11702
pitch_keycenter=f6
sample=Violins2_col_legno_MF_F6_RR2.opus
</region>

<region>
hikey=f5
hivel=127
lokey=e5
lovel=1
offset=10722
pitch_keycenter=f5
sample=Violins2_col_legno_MF_F5_RR2.opus
</region>

<region>
hikey=f4
hivel=127
lokey=e4
lovel=1
offset=13004
pitch_keycenter=f4
sample=Violins2_col_legno_MF_F4_RR2.opus
</region>

<region>
hikey=d#6
hivel=127
lokey=d6
lovel=1
offset=12115
pitch_keycenter=d#6
sample=Violins2_col_legno_MF_D#6_RR2.opus
</region>

<region>
hikey=d#5
hivel=127
lokey=d5
lovel=1
offset=13230
pitch_keycenter=d#5
sample=Violins2_col_legno_MF_D#5_RR2.opus
</region>

<region>
hikey=d#4
hivel=127
lokey=d4
lovel=1
offset=12324
pitch_keycenter=d#4
sample=Violins2_col_legno_MF_D#4_RR2.opus
</region>

<region>
hikey=c#6
hivel=127
lokey=c6
lovel=1
offset=12427
pitch_keycenter=c#6
sample=Violins2_col_legno_MF_C#6_RR2.opus
</region>

<region>
hikey=c#5
hivel=127
lokey=c5
lovel=1
offset=12951
pitch_keycenter=c#5
sample=Violins2_col_legno_MF_C#5_RR2.opus
</region>

<region>
hikey=c#4
hivel=127
lokey=c4
lovel=1
offset=12281
pitch_keycenter=c#4
sample=Violins2_col_legno_MF_C#4_RR2.opus
</region>

<region>
hikey=E7
hivel=127
lokey=a#6
lovel=1
offset=13181
pitch_keycenter=B6
sample=Violins2_col_legno_MF_B6_RR2.opus
</region>

<region>
hikey=b5
hivel=127
lokey=a#5
lovel=1
offset=11536
pitch_keycenter=b5
sample=Violins2_col_legno_MF_B5_RR2.opus
</region>

<region>
hikey=b4
hivel=127
lokey=a#4
lovel=1
offset=13122
pitch_keycenter=b4
sample=Violins2_col_legno_MF_B4_RR2.opus
</region>

<region>
hikey=b3
hivel=127
lokey=a#3
lovel=1
offset=14069
pitch_keycenter=b3
sample=Violins2_col_legno_MF_B3_RR2.opus
</region>

<region>
hikey=a6
hivel=127
lokey=g#6
lovel=1
offset=12936
pitch_keycenter=a6
sample=Violins2_col_legno_MF_A6_RR2.opus
</region>

<region>
hikey=a5
hivel=127
lokey=g#5
lovel=1
offset=11910
pitch_keycenter=a5
sample=Violins2_col_legno_MF_A5_RR2.opus
</region>

<region>
hikey=a4
hivel=127
lokey=g#4
lovel=1
offset=11814
pitch_keycenter=a4
sample=Violins2_col_legno_MF_A4_RR2.opus
</region>

<region>
hikey=a3
hivel=127
lokey=g#3
lovel=1
offset=10818
pitch_keycenter=a3
sample=Violins2_col_legno_MF_A3_RR2.opus
</region>
</group>

<group>
group_label=RR2_0-42
seq_length=4
seq_position=2
xfin_hicc1=42
xfout_hicc1=84
xfout_locc1=42

<region>
hikey=g6
hivel=127
lokey=f#6
lovel=1
offset=10267
pitch_keycenter=g6
sample=Violins2_col_legno_PP_G6_RR2.opus
</region>

<region>
hikey=g5
hivel=127
lokey=f#5
lovel=1
offset=11733
pitch_keycenter=g5
sample=Violins2_col_legno_PP_G5_RR2.opus
</region>

<region>
hikey=g4
hivel=127
lokey=f#4
lovel=1
offset=10383
pitch_keycenter=g4
sample=Violins2_col_legno_PP_G4_RR2.opus
</region>

<region>
hivel=127
key=g3
lovel=1
offset=11686
sample=Violins2_col_legno_PP_G3_RR2.opus
</region>

<region>
hikey=f6
hivel=127
lokey=e6
lovel=1
offset=9410
pitch_keycenter=f6
sample=Violins2_col_legno_PP_F6_RR2.opus
</region>

<region>
hikey=f5
hivel=127
lokey=e5
lovel=1
offset=10516
pitch_keycenter=f5
sample=Violins2_col_legno_PP_F5_RR2.opus
</region>

<region>
hikey=f4
hivel=127
lokey=e4
lovel=1
offset=11878
pitch_keycenter=f4
sample=Violins2_col_legno_PP_F4_RR2.opus
</region>

<region>
hikey=d#6
hivel=127
lokey=d6
lovel=1
offset=11473
pitch_keycenter=d#6
sample=Violins2_col_legno_PP_D#6_RR2.opus
</region>

<region>
hikey=d#5
hivel=127
lokey=d5
lovel=1
offset=7211
pitch_keycenter=d#5
sample=Violins2_col_legno_PP_D#5_RR2.opus
</region>

<region>
hikey=d#4
hivel=127
lokey=d4
lovel=1
offset=11266
pitch_keycenter=d#4
sample=Violins2_col_legno_PP_D#4_RR2.opus
</region>

<region>
hikey=c#6
hivel=127
lokey=c6
lovel=1
offset=10409
pitch_keycenter=c#6
sample=Violins2_col_legno_PP_C#6_RR2.opus
</region>

<region>
hikey=c#5
hivel=127
lokey=c5
lovel=1
offset=1385
pitch_keycenter=c#5
sample=Violins2_col_legno_PP_C#5_RR2.opus
</region>

<region>
hikey=c#4
hivel=127
lokey=c4
lovel=1
offset=11609
pitch_keycenter=c#4
sample=Violins2_col_legno_PP_C#4_RR2.opus
</region>

<region>
hikey=E7
hivel=127
lokey=a#6
lovel=1
offset=10926
pitch_keycenter=B6
sample=Violins2_col_legno_PP_B6_RR2.opus
</region>

<region>
hikey=b5
hivel=127
lokey=a#5
lovel=1
offset=11766
pitch_keycenter=b5
sample=Violins2_col_legno_PP_B5_RR2.opus
</region>

<region>
hikey=b4
hivel=127
lokey=a#4
lovel=1
offset=11683
pitch_keycenter=b4
sample=Violins2_col_legno_PP_B4_RR2.opus
</region>

<region>
hikey=b3
hivel=127
lokey=a#3
lovel=1
offset=12881
pitch_keycenter=b3
sample=Violins2_col_legno_PP_B3_RR2.opus
</region>

<region>
hikey=a6
hivel=127
lokey=g#6
lovel=1
offset=3203
pitch_keycenter=a6
sample=Violins2_col_legno_PP_A6_RR2.opus
</region>

<region>
hikey=a5
hivel=127
lokey=g#5
lovel=1
offset=10873
pitch_keycenter=a5
sample=Violins2_col_legno_PP_A5_RR2.opus
</region>

<region>
hikey=a4
hivel=127
lokey=g#4
lovel=1
offset=14340
pitch_keycenter=a4
sample=Violins2_col_legno_PP_A4_RR2.opus
</region>

<region>
hikey=a3
hivel=127
lokey=g#3
lovel=1
offset=10760
pitch_keycenter=a3
sample=Violins2_col_legno_PP_A3_RR2.opus
</region>
</group>

<group>
group_label=RR2_85-127
seq_length=4
seq_position=2
xfin_hicc1=127
xfin_locc1=85
xfout_hicc1=127
xfout_locc1=127

<region>
hikey=g6
hivel=127
lokey=f#6
lovel=1
offset=12828
pitch_keycenter=g6
sample=Violins2_col_legno_FF_G6_RR2.opus
</region>

<region>
hikey=g5
hivel=127
lokey=f#5
lovel=1
pitch_keycenter=g5
sample=Violins2_col_legno_FF_G5_RR2.opus
</region>

<region>
hikey=g4
hivel=127
lokey=f#4
lovel=1
offset=11280
pitch_keycenter=g4
sample=Violins2_col_legno_FF_G4_RR2.opus
</region>

<region>
hivel=127
key=g3
lovel=1
offset=10495
sample=Violins2_col_legno_FF_G3_RR2.opus
</region>

<region>
hikey=f6
hivel=127
lokey=e6
lovel=1
offset=11860
pitch_keycenter=f6
sample=Violins2_col_legno_FF_F6_RR2.opus
</region>

<region>
hikey=f5
hivel=127
lokey=e5
lovel=1
offset=13056
pitch_keycenter=f5
sample=Violins2_col_legno_FF_F5_RR2.opus
</region>

<region>
hikey=f4
hivel=127
lokey=e4
lovel=1
offset=11437
pitch_keycenter=f4
sample=Violins2_col_legno_FF_F4_RR2.opus
</region>

<region>
hikey=d#6
hivel=127
lokey=d6
lovel=1
offset=11879
pitch_keycenter=d#6
sample=Violins2_col_legno_FF_D#6_RR2.opus
</region>

<region>
hikey=d#5
hivel=127
lokey=d5
lovel=1
offset=11025
pitch_keycenter=d#5
sample=Violins2_col_legno_FF_D#5_RR2.opus
</region>

<region>
hikey=d#4
hivel=127
lokey=d4
lovel=1
offset=10531
pitch_keycenter=d#4
sample=Violins2_col_legno_FF_D#4_RR2.opus
</region>

<region>
hikey=c#6
hivel=127
lokey=c6
lovel=1
offset=11321
pitch_keycenter=c#6
sample=Violins2_col_legno_FF_C#6_RR2.opus
</region>

<region>
hikey=c#5
hivel=127
lokey=c5
lovel=1
offset=11367
pitch_keycenter=c#5
sample=Violins2_col_legno_FF_C#5_RR2.opus
</region>

<region>
hikey=c#4
hivel=127
lokey=c4
lovel=1
offset=9717
pitch_keycenter=c#4
sample=Violins2_col_legno_FF_C#4_RR2.opus
</region>

<region>
hikey=E7
hivel=127
lokey=a#6
lovel=1
offset=11300
pitch_keycenter=B6
sample=Violins2_col_legno_FF_B6_RR2.opus
</region>

<region>
hikey=b5
hivel=127
lokey=a#5
lovel=1
offset=11809
pitch_keycenter=b5
sample=Violins2_col_legno_FF_B5_RR2.opus
</region>

<region>
hikey=b4
hivel=127
lokey=a#4
lovel=1
offset=10576
pitch_keycenter=b4
sample=Violins2_col_legno_FF_B4_RR2.opus
</region>

<region>
hikey=b3
hivel=127
lokey=a#3
lovel=1
offset=11168
pitch_keycenter=b3
sample=Violins2_col_legno_FF_B3_RR2.opus
</region>

<region>
hikey=a6
hivel=127
lokey=g#6
lovel=1
offset=7555
pitch_keycenter=a6
sample=Violins2_col_legno_FF_A6_RR2.opus
</region>

<region>
hikey=a5
hivel=127
lokey=g#5
lovel=1
offset=10777
pitch_keycenter=a5
sample=Violins2_col_legno_FF_A5_RR2.opus
</region>

<region>
hikey=a4
hivel=127
lokey=g#4
lovel=1
offset=8615
pitch_keycenter=a4
sample=Violins2_col_legno_FF_A4_RR2.opus
</region>

<region>
hikey=a3
hivel=127
lokey=g#3
lovel=1
offset=9485
pitch_keycenter=a3
sample=Violins2_col_legno_FF_A3_RR2.opus
</region>
</group>

<group>
group_label=RR3_43-84
seq_length=4
seq_position=3
xfin_hicc1=84
xfin_locc1=43
xfout_hicc1=125
xfout_locc1=84

<region>
hikey=g6
hivel=127
lokey=f#6
lovel=1
offset=12446
pitch_keycenter=g6
sample=Violins2_col_legno_MF_G6_RR3.opus
</region>

<region>
hikey=g5
hivel=127
lokey=f#5
lovel=1
offset=12855
pitch_keycenter=g5
sample=Violins2_col_legno_MF_G5_RR3.opus
</region>

<region>
hikey=g4
hivel=127
lokey=f#4
lovel=1
offset=14440
pitch_keycenter=g4
sample=Violins2_col_legno_MF_G4_RR3.opus
</region>

<region>
hivel=127
key=g3
lovel=1
offset=13955
sample=Violins2_col_legno_MF_G3_RR3.opus
</region>

<region>
hikey=f6
hivel=127
lokey=e6
lovel=1
offset=14855
pitch_keycenter=f6
sample=Violins2_col_legno_MF_F6_RR3.opus
</region>

<region>
hikey=f5
hivel=127
lokey=e5
lovel=1
offset=13892
pitch_keycenter=f5
sample=Violins2_col_legno_MF_F5_RR3.opus
</region>

<region>
hikey=f4
hivel=127
lokey=e4
lovel=1
offset=13711
pitch_keycenter=f4
sample=Violins2_col_legno_MF_F4_RR3.opus
</region>

<region>
hikey=d#6
hivel=127
lokey=d6
lovel=1
offset=13810
pitch_keycenter=d#6
sample=Violins2_col_legno_MF_D#6_RR3.opus
</region>

<region>
hikey=d#5
hivel=127
lokey=d5
lovel=1
offset=13708
pitch_keycenter=d#5
sample=Violins2_col_legno_MF_D#5_RR3.opus
</region>

<region>
hikey=d#4
hivel=127
lokey=d4
lovel=1
offset=12899
pitch_keycenter=d#4
sample=Violins2_col_legno_MF_D#4_RR3.opus
</region>

<region>
hikey=c#6
hivel=127
lokey=c6
lovel=1
offset=14045
pitch_keycenter=c#6
sample=Violins2_col_legno_MF_C#6_RR3.opus
</region>

<region>
hikey=c#5
hivel=127
lokey=c5
lovel=1
offset=13362
pitch_keycenter=c#5
sample=Violins2_col_legno_MF_C#5_RR3.opus
</region>

<region>
hikey=c#4
hivel=127
lokey=c4
lovel=1
offset=13763
pitch_keycenter=c#4
sample=Violins2_col_legno_MF_C#4_RR3.opus
</region>

<region>
hikey=E7
hivel=127
lokey=a#6
lovel=1
offset=12410
pitch_keycenter=B6
sample=Violins2_col_legno_MF_B6_RR3.opus
</region>

<region>
hikey=b5
hivel=127
lokey=a#5
lovel=1
offset=14196
pitch_keycenter=b5
sample=Violins2_col_legno_MF_B5_RR3.opus
</region>

<region>
hikey=b4
hivel=127
lokey=a#4
lovel=1
offset=13972
pitch_keycenter=b4
sample=Violins2_col_legno_MF_B4_RR3.opus
</region>

<region>
hikey=b3
hivel=127
lokey=a#3
lovel=1
offset=12812
pitch_keycenter=b3
sample=Violins2_col_legno_MF_B3_RR3.opus
</region>

<region>
hikey=a6
hivel=127
lokey=g#6
lovel=1
offset=12566
pitch_keycenter=a6
sample=Violins2_col_legno_MF_A6_RR3.opus
</region>

<region>
hikey=a5
hivel=127
lokey=g#5
lovel=1
offset=14036
pitch_keycenter=a5
sample=Violins2_col_legno_MF_A5_RR3.opus
</region>

<region>
hikey=a4
hivel=127
lokey=g#4
lovel=1
offset=14038
pitch_keycenter=a4
sample=Violins2_col_legno_MF_A4_RR3.opus
</region>

<region>
hikey=a3
hivel=127
lokey=g#3
lovel=1
offset=12233
pitch_keycenter=a3
sample=Violins2_col_legno_MF_A3_RR3.opus
</region>
</group>

<group>
group_label=RR3_0-42
seq_length=4
seq_position=3
xfin_hicc1=42
xfout_hicc1=84
xfout_locc1=42

<region>
hikey=g6
hivel=127
lokey=f#6
lovel=1
offset=11556
pitch_keycenter=g6
sample=Violins2_col_legno_PP_G6_RR3.opus
</region>

<region>
hikey=g5
hivel=127
lokey=f#5
lovel=1
offset=12464
pitch_keycenter=g5
sample=Violins2_col_legno_PP_G5_RR3.opus
</region>

<region>
hikey=g4
hivel=127
lokey=f#4
lovel=1
offset=12904
pitch_keycenter=g4
sample=Violins2_col_legno_PP_G4_RR3.opus
</region>

<region>
hivel=127
key=g3
lovel=1
offset=12289
sample=Violins2_col_legno_PP_G3_RR3.opus
</region>

<region>
hikey=f6
hivel=127
lokey=e6
lovel=1
offset=12712
pitch_keycenter=f6
sample=Violins2_col_legno_PP_F6_RR3.opus
</region>

<region>
hikey=f5
hivel=127
lokey=e5
lovel=1
offset=13357
pitch_keycenter=f5
sample=Violins2_col_legno_PP_F5_RR3.opus
</region>

<region>
hikey=f4
hivel=127
lokey=e4
lovel=1
offset=1256
pitch_keycenter=f4
sample=Violins2_col_legno_PP_F4_RR3.opus
</region>

<region>
hikey=d#6
hivel=127
lokey=d6
lovel=1
offset=12748
pitch_keycenter=d#6
sample=Violins2_col_legno_PP_D#6_RR3.opus
</region>

<region>
hikey=d#5
hivel=127
lokey=d5
lovel=1
offset=12227
pitch_keycenter=d#5
sample=Violins2_col_legno_PP_D#5_RR3.opus
</region>

<region>
hikey=d#4
hivel=127
lokey=d4
lovel=1
offset=12207
pitch_keycenter=d#4
sample=Violins2_col_legno_PP_D#4_RR3.opus
</region>

<region>
hikey=c#6
hivel=127
lokey=c6
lovel=1
offset=11204
pitch_keycenter=c#6
sample=Violins2_col_legno_PP_C#6_RR3.opus
</region>

<region>
hikey=c#5
hivel=127
lokey=c5
lovel=1
offset=11362
pitch_keycenter=c#5
sample=Violins2_col_legno_PP_C#5_RR3.opus
</region>

<region>
hikey=c#4
hivel=127
lokey=c4
lovel=1
offset=12583
pitch_keycenter=c#4
sample=Violins2_col_legno_PP_C#4_RR3.opus
</region>

<region>
hikey=E7
hivel=127
lokey=a#6
lovel=1
offset=12383
pitch_keycenter=B6
sample=Violins2_col_legno_PP_B6_RR3.opus
</region>

<region>
hikey=b5
hivel=127
lokey=a#5
lovel=1
offset=7407
pitch_keycenter=b5
sample=Violins2_col_legno_PP_B5_RR3.opus
</region>

<region>
hikey=b4
hivel=127
lokey=a#4
lovel=1
offset=11868
pitch_keycenter=b4
sample=Violins2_col_legno_PP_B4_RR3.opus
</region>

<region>
hikey=b3
hivel=127
lokey=a#3
lovel=1
offset=11994
pitch_keycenter=b3
sample=Violins2_col_legno_PP_B3_RR3.opus
</region>

<region>
hikey=a6
hivel=127
lokey=g#6
lovel=1
offset=11586
pitch_keycenter=a6
sample=Violins2_col_legno_PP_A6_RR3.opus
</region>

<region>
hikey=a5
hivel=127
lokey=g#5
lovel=1
offset=12130
pitch_keycenter=a5
sample=Violins2_col_legno_PP_A5_RR3.opus
</region>

<region>
hikey=a4
hivel=127
lokey=g#4
lovel=1
offset=12559
pitch_keycenter=a4
sample=Violins2_col_legno_PP_A4_RR3.opus
</region>

<region>
hikey=a3
hivel=127
lokey=g#3
lovel=1
offset=12226
pitch_keycenter=a3
sample=Violins2_col_legno_PP_A3_RR3.opus
</region>
</group>

<group>
group_label=RR3_85-127
seq_length=4
seq_position=3
xfin_hicc1=127
xfin_locc1=85
xfout_hicc1=127
xfout_locc1=127

<region>
hikey=g6
hivel=127
lokey=f#6
lovel=1
offset=12218
pitch_keycenter=g6
sample=Violins2_col_legno_FF_G6_RR3.opus
</region>

<region>
hikey=g5
hivel=127
lokey=f#5
lovel=1
offset=4307
pitch_keycenter=g5
sample=Violins2_col_legno_FF_G5_RR3.opus
</region>

<region>
hikey=g4
hivel=127
lokey=f#4
lovel=1
offset=12701
pitch_keycenter=g4
sample=Violins2_col_legno_FF_G4_RR3.opus
</region>

<region>
hivel=127
key=g3
lovel=1
offset=12641
sample=Violins2_col_legno_FF_G3_RR3.opus
</region>

<region>
hikey=f6
hivel=127
lokey=e6
lovel=1
offset=12093
pitch_keycenter=f6
sample=Violins2_col_legno_FF_F6_RR3.opus
</region>

<region>
hikey=f5
hivel=127
lokey=e5
lovel=1
offset=12384
pitch_keycenter=f5
sample=Violins2_col_legno_FF_F5_RR3.opus
</region>

<region>
hikey=f4
hivel=127
lokey=e4
lovel=1
offset=11745
pitch_keycenter=f4
sample=Violins2_col_legno_FF_F4_RR3.opus
</region>

<region>
hikey=d#6
hivel=127
lokey=d6
lovel=1
offset=12095
pitch_keycenter=d#6
sample=Violins2_col_legno_FF_D#6_RR3.opus
</region>

<region>
hikey=d#5
hivel=127
lokey=d5
lovel=1
offset=8951
pitch_keycenter=d#5
sample=Violins2_col_legno_FF_D#5_RR3.opus
</region>

<region>
hikey=d#4
hivel=127
lokey=d4
lovel=1
offset=8115
pitch_keycenter=d#4
sample=Violins2_col_legno_FF_D#4_RR3.opus
</region>

<region>
hikey=c#6
hivel=127
lokey=c6
lovel=1
offset=11779
pitch_keycenter=c#6
sample=Violins2_col_legno_FF_C#6_RR3.opus
</region>

<region>
hikey=c#5
hivel=127
lokey=c5
lovel=1
offset=12840
pitch_keycenter=c#5
sample=Violins2_col_legno_FF_C#5_RR3.opus
</region>

<region>
hikey=c#4
hivel=127
lokey=c4
lovel=1
offset=10790
pitch_keycenter=c#4
sample=Violins2_col_legno_FF_C#4_RR3.opus
</region>

<region>
hikey=E7
hivel=127
lokey=a#6
lovel=1
offset=11470
pitch_keycenter=B6
sample=Violins2_col_legno_FF_B6_RR3.opus
</region>

<region>
hikey=b5
hivel=127
lokey=a#5
lovel=1
offset=12438
pitch_keycenter=b5
sample=Violins2_col_legno_FF_B5_RR3.opus
</region>

<region>
hikey=b4
hivel=127
lokey=a#4
lovel=1
offset=12153
pitch_keycenter=b4
sample=Violins2_col_legno_FF_B4_RR3.opus
</region>

<region>
hikey=b3
hivel=127
lokey=a#3
lovel=1
offset=11721
pitch_keycenter=b3
sample=Violins2_col_legno_FF_B3_RR3.opus
</region>

<region>
hikey=a6
hivel=127
lokey=g#6
lovel=1
offset=9429
pitch_keycenter=a6
sample=Violins2_col_legno_FF_A6_RR3.opus
</region>

<region>
hikey=a5
hivel=127
lokey=g#5
lovel=1
offset=11815
pitch_keycenter=a5
sample=Violins2_col_legno_FF_A5_RR3.opus
</region>

<region>
hikey=a4
hivel=127
lokey=g#4
lovel=1
offset=13079
pitch_keycenter=a4
sample=Violins2_col_legno_FF_A4_RR3.opus
</region>

<region>
hikey=a3
hivel=127
lokey=g#3
lovel=1
offset=11900
pitch_keycenter=a3
sample=Violins2_col_legno_FF_A3_RR3.opus
</region>
</group>

<group>
group_label=RR4_43-84
seq_length=4
seq_position=4
xfin_hicc1=84
xfin_locc1=43
xfout_hicc1=125
xfout_locc1=84

<region>
hikey=g6
hivel=127
lokey=f#6
lovel=1
offset=11556
pitch_keycenter=g6
sample=Violins2_col_legno_MF_G6_RR4.opus
</region>

<region>
hikey=g5
hivel=127
lokey=f#5
lovel=1
offset=13148
pitch_keycenter=g5
sample=Violins2_col_legno_MF_G5_RR4.opus
</region>

<region>
hikey=g4
hivel=127
lokey=f#4
lovel=1
offset=14253
pitch_keycenter=g4
sample=Violins2_col_legno_MF_G4_RR4.opus
</region>

<region>
hivel=127
key=g3
lovel=1
offset=14811
sample=Violins2_col_legno_MF_G3_RR4.opus
</region>

<region>
hikey=f6
hivel=127
lokey=e6
lovel=1
offset=14024
pitch_keycenter=f6
sample=Violins2_col_legno_MF_F6_RR4.opus
</region>

<region>
hikey=f5
hivel=127
lokey=e5
lovel=1
offset=12389
pitch_keycenter=f5
sample=Violins2_col_legno_MF_F5_RR4.opus
</region>

<region>
hikey=f4
hivel=127
lokey=e4
lovel=1
offset=13093
pitch_keycenter=f4
sample=Violins2_col_legno_MF_F4_RR4.opus
</region>

<region>
hikey=d#6
hivel=127
lokey=d6
lovel=1
offset=14271
pitch_keycenter=d#6
sample=Violins2_col_legno_MF_D#6_RR4.opus
</region>

<region>
hikey=d#5
hivel=127
lokey=d5
lovel=1
offset=13786
pitch_keycenter=d#5
sample=Violins2_col_legno_MF_D#5_RR4.opus
</region>

<region>
hikey=d#4
hivel=127
lokey=d4
lovel=1
offset=13645
pitch_keycenter=d#4
sample=Violins2_col_legno_MF_D#4_RR4.opus
</region>

<region>
hikey=c#6
hivel=127
lokey=c6
lovel=1
offset=11803
pitch_keycenter=c#6
sample=Violins2_col_legno_MF_C#6_RR4.opus
</region>

<region>
hikey=c#5
hivel=127
lokey=c5
lovel=1
offset=12975
pitch_keycenter=c#5
sample=Violins2_col_legno_MF_C#5_RR4.opus
</region>

<region>
hikey=c#4
hivel=127
lokey=c4
lovel=1
offset=13479
pitch_keycenter=c#4
sample=Violins2_col_legno_MF_C#4_RR4.opus
</region>

<region>
hikey=E7
hivel=127
lokey=a#6
lovel=1
offset=12586
pitch_keycenter=B6
sample=Violins2_col_legno_MF_B6_RR4.opus
</region>

<region>
hikey=b5
hivel=127
lokey=a#5
lovel=1
offset=13273
pitch_keycenter=b5
sample=Violins2_col_legno_MF_B5_RR4.opus
</region>

<region>
hikey=b4
hivel=127
lokey=a#4
lovel=1
offset=13569
pitch_keycenter=b4
sample=Violins2_col_legno_MF_B4_RR4.opus
</region>

<region>
hikey=b3
hivel=127
lokey=a#3
lovel=1
offset=9504
pitch_keycenter=b3
sample=Violins2_col_legno_MF_B3_RR4.opus
</region>

<region>
hikey=a6
hivel=127
lokey=g#6
lovel=1
offset=13209
pitch_keycenter=a6
sample=Violins2_col_legno_MF_A6_RR4.opus
</region>

<region>
hikey=a5
hivel=127
lokey=g#5
lovel=1
offset=17225
pitch_keycenter=a5
sample=Violins2_col_legno_MF_A5_RR4.opus
</region>

<region>
hikey=a4
hivel=127
lokey=g#4
lovel=1
offset=13141
pitch_keycenter=a4
sample=Violins2_col_legno_MF_A4_RR4.opus
</region>

<region>
hikey=a3
hivel=127
lokey=g#3
lovel=1
offset=13979
pitch_keycenter=a3
sample=Violins2_col_legno_MF_A3_RR4.opus
</region>
</group>

<group>
group_label=RR4_0-42
seq_length=4
seq_position=4
xfin_hicc1=42
xfout_hicc1=84
xfout_locc1=42

<region>
hikey=g6
hivel=127
lokey=f#6
lovel=1
offset=12472
pitch_keycenter=g6
sample=Violins2_col_legno_PP_G6_RR4.opus
</region>

<region>
hikey=g5
hivel=127
lokey=f#5
lovel=1
offset=10386
pitch_keycenter=g5
sample=Violins2_col_legno_PP_G5_RR4.opus
</region>

<region>
hikey=g4
hivel=127
lokey=f#4
lovel=1
offset=11851
pitch_keycenter=g4
sample=Violins2_col_legno_PP_G4_RR4.opus
</region>

<region>
hivel=127
key=g3
lovel=1
offset=12539
sample=Violins2_col_legno_PP_G3_RR4.opus
</region>

<region>
hikey=f6
hivel=127
lokey=e6
lovel=1
offset=12770
pitch_keycenter=f6
sample=Violins2_col_legno_PP_F6_RR4.opus
</region>

<region>
hikey=f5
hivel=127
lokey=e5
lovel=1
offset=3240
pitch_keycenter=f5
sample=Violins2_col_legno_PP_F5_RR4.opus
</region>

<region>
hikey=f4
hivel=127
lokey=e4
lovel=1
offset=12969
pitch_keycenter=f4
sample=Violins2_col_legno_PP_F4_RR4.opus
</region>

<region>
hikey=d#6
hivel=127
lokey=d6
lovel=1
offset=10772
pitch_keycenter=d#6
sample=Violins2_col_legno_PP_D#6_RR4.opus
</region>

<region>
hikey=d#5
hivel=127
lokey=d5
lovel=1
offset=12676
pitch_keycenter=d#5
sample=Violins2_col_legno_PP_D#5_RR4.opus
</region>

<region>
hikey=d#4
hivel=127
lokey=d4
lovel=1
offset=11180
pitch_keycenter=d#4
sample=Violins2_col_legno_PP_D#4_RR4.opus
</region>

<region>
hikey=c#6
hivel=127
lokey=c6
lovel=1
offset=14030
pitch_keycenter=c#6
sample=Violins2_col_legno_PP_C#6_RR4.opus
</region>

<region>
hikey=c#5
hivel=127
lokey=c5
lovel=1
offset=13426
pitch_keycenter=c#5
sample=Violins2_col_legno_PP_C#5_RR4.opus
</region>

<region>
hikey=c#4
hivel=127
lokey=c4
lovel=1
offset=1776
pitch_keycenter=c#4
sample=Violins2_col_legno_PP_C#4_RR4.opus
</region>

<region>
hikey=E7
hivel=127
lokey=a#6
lovel=1
offset=12050
pitch_keycenter=B6
sample=Violins2_col_legno_PP_B6_RR4.opus
</region>

<region>
hikey=b5
hivel=127
lokey=a#5
lovel=1
offset=11082
pitch_keycenter=b5
sample=Violins2_col_legno_PP_B5_RR4.opus
</region>

<region>
hikey=b4
hivel=127
lokey=a#4
lovel=1
offset=9665
pitch_keycenter=b4
sample=Violins2_col_legno_PP_B4_RR4.opus
</region>

<region>
hikey=b3
hivel=127
lokey=a#3
lovel=1
offset=13976
pitch_keycenter=b3
sample=Violins2_col_legno_PP_B3_RR4.opus
</region>

<region>
hikey=a6
hivel=127
lokey=g#6
lovel=1
offset=11741
pitch_keycenter=a6
sample=Violins2_col_legno_PP_A6_RR4.opus
</region>

<region>
hikey=a5
hivel=127
lokey=g#5
lovel=1
offset=11293
pitch_keycenter=a5
sample=Violins2_col_legno_PP_A5_RR4.opus
</region>

<region>
hikey=a4
hivel=127
lokey=g#4
lovel=1
offset=14011
pitch_keycenter=a4
sample=Violins2_col_legno_PP_A4_RR4.opus
</region>

<region>
hikey=a3
hivel=127
lokey=g#3
lovel=1
offset=10600
pitch_keycenter=a3
sample=Violins2_col_legno_PP_A3_RR4.opus
</region>
</group>

<group>
group_label=RR4_85-127
seq_length=4
seq_position=4
xfin_hicc1=127
xfin_locc1=85
xfout_hicc1=127
xfout_locc1=127

<region>
hikey=g6
hivel=127
lokey=f#6
lovel=1
offset=11961
pitch_keycenter=g6
sample=Violins2_col_legno_FF_G6_RR4.opus
</region>

<region>
hikey=g5
hivel=127
lokey=f#5
lovel=1
offset=5858
pitch_keycenter=g5
sample=Violins2_col_legno_FF_G5_RR4.opus
</region>

<region>
hikey=g4
hivel=127
lokey=f#4
lovel=1
offset=11167
pitch_keycenter=g4
sample=Violins2_col_legno_FF_G4_RR4.opus
</region>

<region>
hivel=127
key=g3
lovel=1
offset=10948
sample=Violins2_col_legno_FF_G3_RR4.opus
</region>

<region>
hikey=f6
hivel=127
lokey=e6
lovel=1
offset=11085
pitch_keycenter=f6
sample=Violins2_col_legno_FF_F6_RR4.opus
</region>

<region>
hikey=f5
hivel=127
lokey=e5
lovel=1
offset=11363
pitch_keycenter=f5
sample=Violins2_col_legno_FF_F5_RR4.opus
</region>

<region>
hikey=f4
hivel=127
lokey=e4
lovel=1
offset=12451
pitch_keycenter=f4
sample=Violins2_col_legno_FF_F4_RR4.opus
</region>

<region>
hikey=d#6
hivel=127
lokey=d6
lovel=1
offset=13253
pitch_keycenter=d#6
sample=Violins2_col_legno_FF_D#6_RR4.opus
</region>

<region>
hikey=d#5
hivel=127
lokey=d5
lovel=1
offset=11062
pitch_keycenter=d#5
sample=Violins2_col_legno_FF_D#5_RR4.opus
</region>

<region>
hikey=d#4
hivel=127
lokey=d4
lovel=1
pitch_keycenter=d#4
sample=Violins2_col_legno_FF_D#4_RR4.opus
</region>

<region>
hikey=c#6
hivel=127
lokey=c6
lovel=1
offset=11873
pitch_keycenter=c#6
sample=Violins2_col_legno_FF_C#6_RR4.opus
</region>

<region>
hikey=c#5
hivel=127
lokey=c5
lovel=1
offset=10600
pitch_keycenter=c#5
sample=Violins2_col_legno_FF_C#5_RR4.opus
</region>

<region>
hikey=c#4
hivel=127
lokey=c4
lovel=1
offset=10796
pitch_keycenter=c#4
sample=Violins2_col_legno_FF_C#4_RR4.opus
</region>

<region>
hikey=E7
hivel=127
lokey=a#6
lovel=1
offset=11912
pitch_keycenter=B6
sample=Violins2_col_legno_FF_B6_RR4.opus
</region>

<region>
hikey=b5
hivel=127
lokey=a#5
lovel=1
offset=11946
pitch_keycenter=b5
sample=Violins2_col_legno_FF_B5_RR4.opus
</region>

<region>
hikey=b4
hivel=127
lokey=a#4
lovel=1
offset=11971
pitch_keycenter=b4
sample=Violins2_col_legno_FF_B4_RR4.opus
</region>

<region>
hikey=b3
hivel=127
lokey=a#3
lovel=1
offset=12474
pitch_keycenter=b3
sample=Violins2_col_legno_FF_B3_RR4.opus
</region>

<region>
hikey=a6
hivel=127
lokey=g#6
lovel=1
offset=11937
pitch_keycenter=a6
sample=Violins2_col_legno_FF_A6_RR4.opus
</region>

<region>
hikey=a5
hivel=127
lokey=g#5
lovel=1
offset=12074
pitch_keycenter=a5
sample=Violins2_col_legno_FF_A5_RR4.opus
</region>

<region>
hikey=a4
hivel=127
lokey=g#4
lovel=1
offset=11792
pitch_keycenter=a4
sample=Violins2_col_legno_FF_A4_RR4.opus
</region>

<region>
hikey=a3
hivel=127
lokey=g#3
lovel=1
offset=12624
pitch_keycenter=a3
sample=Violins2_col_legno_FF_A3_RR4.opus
</region>
</group>